<svg viewBox="0 0 900 240"><path d="M291.3 162.1c0 50.8-24.6 77.9-51.7 77.9-52.4 0-36.5-85.4-106-.3V39.6H97.8l15.9-36.5h59.2v133.7c11.5-43.3 49.2-58.9 85.1-58.9 67.9 0-104.7 84.2 33.3 84.2zM172.9 159c0 33.7 12.8 46.4 30.2 46.4 19.9 0 32.1-13.7 32.1-46.4S223 111 204 111c-18.3 0-31.1 15.9-31.1 48zm247.8 81l-39-26.5v-74.8c-4.4 71.7-31.5 101.3-61.1 101.3-14.6 0-25.2-8.1-25.2-26.5 0-22.4 12.5-61.7 36.8-96h-22.8L336.5 81h85.7v87.3l34.3 23.4-35.8 48.3zm-39-122.5h-45.5c-16.8 25.9-19.3 41.8-19.3 52 0 16.8 9.3 22.1 21.5 22.1 26.8.1 43.3-31.7 43.3-74.1zm150.9 75.1c3.1 5.3 11.5 20.6 13.7 24.3L508.6 240c-7.8-7.2-41.1-38-52.4-48.3l35.8-23.4v-50.8h-35.8L472.1 81h59.8l.7 111.6zM678.4 240l-39-26.5v-74.8c-4.3 71.7-31.4 101.3-61 101.3-14.6 0-25.2-8.1-25.2-26.5 0-22.4 12.5-61.7 36.8-96h-22.8L594.3 81H680v87.3l34.3 23.4-35.9 48.3zm-39-122.5h-45.5c-16.8 25.9-19.3 41.8-19.3 52 0 16.8 9.4 22.1 21.5 22.1 26.8.1 43.3-31.7 43.3-74.1zm151.5 32.1c24.3 32.4 98.5 26.5 109.1 12.5L866.3 240c-12.2 0-66.7-46.1-76.4-89.1v41.8c3.1 5.3 11.8 20.9 13.7 24.3L766 240c-8.1-7.2-41.1-38-52.4-48.3l35.8-23.4V36.5h-35.8L729.5 0H790v148c6.2-31.8 28.4-70.1 66.1-70.1 26.2 0 35.5 15.9 37.7 27.1l-31.2 37.1c-3.4-11.5-17.1-23.1-34.6-23.1-18.7.1-32.4 10.7-37.1 30.6zM446.1 54.5c5.1-14.3 14.9-21.4 27.2-21.4 15.6 0 26.6 10.3 30 32.1h2c.7-24.9 69-65.2 22-65.2-34.6 0-70.9 14.5-83.8 54.5h2.6zm-357 138.1c3.1 5.3 11.5 20.6 13.7 24.3L65.1 240c-7.8-7.2-41.1-38-52.4-48.3l35.8-23.4v-50.8H12.7L28.6 81h59.8l.7 111.6zM2.6 54.5C7.8 40.2 17.6 33 29.9 33c15.6 0 26.6 10.3 30 32.1h2C62.6 40.3 130.8 0 83.8 0 49.2 0 12.9 14.5 0 54.5h2.6z"/></svg>