<svg id="Capa_1" x="0" y="0" version="1.1" viewBox="0 0 86 62" xml:space="preserve"><path d="M33.2 52.1c.4 0 .6-.1 1-.2.7-.3 1-.7 1.4-1.3.4-.7.5-1.2.6-2 0-.9-.1-1.6-.6-2.4-.1-.2-.2-.3-.3-.4l-.3-.3c-.1-.2-.3-.4-.5-.6-.1-.2-.3-.3-.4-.4l-.4-.4c-.5-.6-.7-.9-1-1.6-.2-.6-.3-1.1-.4-1.7 0-.2 0-.3-.1-.5 0-.4-.1-.6-.1-.9v-1.7c0-.4.1-.7.1-1 .1-.4.1-.7.1-1.2v-.3-.8c-.1-.5-.2-.8-.4-1.2-.5-1.1-1.1-2-2.3-2.5-.3-.1-.5-.2-.8-.3-.4-.1-.7-.1-1.1-.2h-1.1c-1.1 0-1.8.2-2.9.7-.2.1-.3.1-.5.2-1.1.6-1.6 1.3-2.3 2.3-.4.7-.6 1.2-.8 1.8-.3.9-.4 1.5-.4 2.5v.9c.1.7.1 1.1.3 1.6 0 .2.1.3.1.5s.1.4.1.5c0 .2.1.4.1.6.1.5.1.8.2 1.3v.3c.5.7.5 1 .5 1.6v1.3c0 .3 0 .5-.1.7v.7c0 .3-.1.5-.2.9-.4 1.3-.9 2-1.8 3l-.3.3c-.2.3-.3.4-.6.7-.4.4-.6.7-1.1 1l-.1.1c-.3.2-.5.4-.8.5-.4.2-.7.2-1.1.3h-.1c-.8.1-1.3.2-2.1 0s-1.3-.3-2-.8c-.7-.7-1-1.3-1.4-2.4v-.1c-.2-.3-.3-.6-.3-.9 0-.2-.1-.3-.1-.5l-.1-.5c-.1-.5-.2-.8-.4-1.3-.2-.8-.3-1.3-.4-2-.1-.3-.1-.7-.2-1 0-.2-.1-.4-.1-.6-.1-.3-.1-.6-.2-1-.1-.5-.1-.8-.1-1.2 0-.3 0-.6-.1-.9 0-.2 0-.4-.1-.5 0-.2-.1-.4-.1-.7-.1-.9-.1-1.4 0-2.4v-.4c0-.4 0-.7.2-1.1.1-.3.2-.6.3-.8.1-.1.1-.3.2-.4.2-.6.5-1 .8-1.4.4-.6.7-1.2 1-2.2l-.1-.4c.1-.5.2-.8.2-1.4 0-.5 0-.8-.2-1.3-.4-1.4-1.5-2.3-3.2-2.6-.9-.1-1.5 0-2.4.4-1.1.5-2 1-2.6 2.3-.4.7-.5 1.2-.5 1.9-.1.6 0 1 .1 1.6 0 .3.1.5.2.7l.1.2c.4 1.4.6 2.2 1.3 3.4.2.4.4.6.5.9.1.2.2.4.4.6.1.2.3.4.4.6.3.4.5.8.7 1.3.2.6.3 1 .5 1.5 0 .2.1.4.2.6l.1.2c.1.2.1.3.1.6.1.4.1.7.2 1.1v.3c0 .3.1.5.1.7l.1 1c0 .3.1.5.1.8 0 .2 0 .3.1.5 0 .3.1.6.1 1 0 .5 0 .9-.1 1.4v.1c0 .4-.1.7-.1 1.1-.1.3-.1.7-.1 1.1v.4c-.1.8-.1 1.3 0 2.2.1.6.1 1 .3 1.6.1.7.2 1 .5 1.7 0 .1.1.2.1.3.1.4.2.7.5 1.2.5.8 1.1 1.4 2.2 1.7.9.3 1.4.3 2.1.3h.7c2.2-.1 3.4-.8 4.9-1.9.9-.6 1.4-1 2.1-1.9.3-.4.5-.6.7-1l.1-.1c.3-.4.5-.8.7-1.1l.6-1.1c.5-.9.9-1.6 1.5-2.6.5-.9.7-1.4 1.1-2.3.1-.3.2-.5.3-.8.4-1.1.5-2.1.7-2.9.1-.7.2-1.5.5-2.4l.1-.4c.1-.3.2-.6.3-1 .5-1.2.9-1.8 1.7-2.8.1-.1.2-.2.2-.3.2-.2.3-.4.5-.6.2-.1.2-.2.4-.2.1 0 .2-.1.3 0 .1 0 .1 0 .3.1.2.1.2.2.3.5 0 .1.1.3.1.4.1.3.2.6.2.9l.1.3c.1.7.2 1 .3 1.6.1.3.1.6.1.9.1.3.1.7.2 1.1 0 .1.1.2.1.4 0 .1.1.2.1.4s0 .3.1.5l.1.5v.7c0 .1 0 .2.1.3 0 .1 0 .2.1.3.1.5 0 .8 0 1.2 0 .4-.1.8 0 1.3-.2 2 .7 3.1 2.1 3.1zM38.3 54.3c-.3-.4-.5-.7-1-.9-.2-.1-.3-.1-.5-.1h-.1c-.6 0-.9.4-1.2.8l-.3.3c-.1.1-.2.2-.2.3l-.2.2c-.1.1-.2.1-.3.1h-.3c-.2 0-.4 0-.7.2-.6.3-1.4.8-1.5 1.9v.5c.1.6.2 1 .5 1.4.7 1.2 1.6 1.7 2.8 1.7.9 0 1.4-.3 2-.7.8-.6 1-1.3 1.2-2.2l.1-.2c.1-.3.1-.4.2-.7.2-1 .1-1.8-.5-2.6" class="st0"/><g><path d="M60.2 48.9V33.5c0-.3-.3-.6-.6-.6h-1.5c-.3 0-.6.3-.6.6v12.7c-1.4.7-2.8 1.2-4.1 1.2-2.3 0-3.3-.9-3.3-4v-9.9c0-.3-.3-.6-.6-.6h-1.4c-.3 0-.6.3-.6.6v9.9c0 4 1.6 6.3 5.2 6.3 1.8 0 3.1-.5 4.8-1.4v.6c0 .3.2.6.6.6h1.5c.3 0 .6-.3.6-.6M71.7 34.5v-1.2c0-.4-.2-.5-.6-.5-1.4 0-2.7.4-4.2 1.4v-.6c0-.3-.2-.6-.6-.6h-1.4c-.3 0-.6.3-.6.6V49c0 .3.3.6.6.6h1.5c.3 0 .6-.3.6-.6V36.3c1.5-.9 2.8-1.3 4.1-1.3.4 0 .6-.2.6-.5M82.6 46.3c-1.4.8-2.7 1.2-4.1 1.2-1.7 0-2.8-.6-2.8-2.7v-.4c0-2.1 1-3 4.6-3h2.2v4.9zm2.6 2.6V38.4c0-3.6-1.7-5.7-5.9-5.7-2 0-3.4.2-4.7.4-.4.1-.6.2-.6.6v1.1c0 .4.3.5.5.5h.1c1.2-.1 2.6-.2 4.6-.2 2.3 0 3.2.9 3.2 3.4v1.2h-2.2c-5.3 0-7.2 1.6-7.2 4.9v.4c0 3.8 2.3 4.9 4.9 4.9 1.7 0 3.2-.6 4.6-1.5v.7c0 .3.3.6.6.6h1.4c.4-.2.7-.5.7-.8M48.4 60c-.2.1-.4.2-.5.2-.2 0-.4-.1-.4-.4 0-.3.1-.4.6-.4h.3v.6zm.4.4V59c0-.5-.2-.7-.8-.7-.3 0-.4 0-.6.1-.1 0-.1 0-.1.1v.1c0 .1 0 .1.1.1h.6c.3 0 .4.1.4.4v.2h-.3c-.7 0-.9.2-.9.6 0 .5.3.6.6.6.2 0 .4-.1.6-.2v.1s0 .1.1.1l.3-.1c-.1 0 0 0 0 0M50.6 60.6c0 .2-.1.3-.5.3s-.6-.1-.6-.4c0-.2.1-.3.2-.4l.4.1c.4.2.5.2.5.4zm0-1.6c0 .2-.1.4-.5.4-.5 0-.5-.2-.5-.4s.1-.4.5-.4c.4-.1.5.1.5.4zm.4-.5v-.1s0-.1-.1-.1H50c-.7 0-.9.3-.9.7 0 .2.1.3.2.5-.1.1-.2.2-.2.3 0 .1.1.3.2.3-.1.1-.2.3-.2.5 0 .4.3.6.9.6.6 0 .9-.2.9-.6 0-.4-.4-.5-.8-.6l-.6-.2c-.1 0-.1-.1-.1-.1 0-.1 0-.1.1-.1s.2.1.5.1c.6 0 .9-.2.9-.7 0-.2-.1-.3-.1-.4l.2-.1M52.7 59.2h-1c0-.4.2-.6.5-.6.3-.1.5.1.5.6zm.3.2v-.2c0-.6-.3-.9-.9-.9-.6 0-.9.4-.9.9v.4c0 .7.4.9.9.9.3 0 .5 0 .7-.1.1 0 .1 0 .1-.1v-.1s0-.1-.1-.1h-.7c-.4 0-.5-.2-.5-.6v-.1H53c0 .1 0 0 0 0M55.1 60.4v-1.3c0-.5-.2-.8-.7-.8-.2 0-.4.1-.6.2v-.1s0-.1-.1-.1h-.2s-.1 0-.1.1v2s0 .1.1.1h.2s.1 0 .1-.1v-1.7c.2-.1.4-.2.5-.2.3 0 .4.1.4.5v1.3s0 .1.1.1h.3c-.1 0 0 0 0 0M56.9 60.3v-.1s0-.1-.1-.1h-.5c-.3 0-.5-.2-.5-.7v-.3c0-.4.2-.7.5-.7h.5s.1 0 .1-.1v-.1c0-.1 0-.1-.1-.1h-.5c-.5 0-.8.4-.8 1v.3c0 .6.3 1 .8 1 .2.1.3.1.6-.1-.1.1 0 .1 0 0M57.6 60.4v-2s0-.1-.1-.1h-.2s-.1 0-.1.1v2s0 .1.1.1l.3-.1m0-2.6v-.3s0-.1-.1-.1h-.2s-.1 0-.1.1v.3s0 .1.1.1l.3-.1c0 .1 0 .1 0 0M59.3 60c-.2.1-.3.2-.5.2s-.4-.1-.4-.4c0-.3.1-.4.6-.4h.3v.6zm.3.4V59c0-.5-.2-.7-.8-.7-.3 0-.4 0-.6.1-.1 0-.1 0-.1.1v.1c0 .1 0 .1.1.1h.6c.3 0 .4.1.4.4v.2H59c-.7 0-.9.2-.9.6 0 .5.3.6.6.6.2 0 .4-.1.6-.2v.1s0 .1.1.1l.2-.1M62.6 58.3l-.3-.1s-.1 0-.1.1l-.5 1.7c0 .1 0 .1-.1.1 0 0-.1 0-.1-.1l-.5-1.7s0-.1-.1-.1h-.2s-.1 0-.1.1l.5 1.9c.1.2.2.2.4.2s.3 0 .4-.2l.7-1.9c0 .1 0 0 0 0M64 60c-.2.1-.4.2-.5.2-.2 0-.4-.1-.4-.4 0-.3.1-.4.6-.4h.3v.6zm.4.4V59c0-.5-.2-.7-.8-.7-.3 0-.5 0-.6.1-.1 0-.1 0-.1.1v.1c0 .1 0 .1.1.1h.6c.3 0 .4.1.4.4v.2h-.3c-.7 0-.9.2-.9.6 0 .5.3.6.6.6.2 0 .4-.1.6-.2v.1s0 .1.1.1l.3-.1c-.1 0 0 0 0 0M66.2 59.9c0-.2-.1-.4-.4-.6l-.4-.2c-.2-.1-.3-.2-.3-.3 0-.2.1-.2.4-.2h.6s.1 0 .1-.1v-.1s0-.1-.1-.1c-.2 0-.4-.1-.6-.1-.4 0-.7.1-.7.5 0 .2.2.4.4.6l.4.2c.2.1.3.2.3.3 0 .2-.1.3-.4.3h-.6s-.1 0-.1.1v.1s0 .1.1.1c.2 0 .5.1.6.1.4 0 .7-.2.7-.6M67.9 60.3v-.1s0-.1-.1-.1h-.5c-.3 0-.5-.2-.5-.7v-.3c0-.4.2-.7.5-.7h.5s.1 0 .1-.1v-.1c0-.1 0-.1-.1-.1h-.5c-.5 0-.8.4-.8 1v.3c0 .6.3 1 .8 1 .2.1.4.1.6-.1 0 .1 0 .1 0 0M69.4 60c-.2.1-.3.2-.5.2s-.4-.1-.4-.4c0-.3.1-.4.6-.4h.3v.6zm.4.4V59c0-.5-.2-.7-.8-.7-.3 0-.4 0-.6.1-.1 0-.1 0-.1.1v.1c0 .1 0 .1.1.1h.6c.3 0 .4.1.4.4v.2h-.3c-.7 0-.9.2-.9.6 0 .5.3.6.6.6.2 0 .4-.1.6-.2v.1s0 .1.1.1l.3-.1M72.3 60.1h-.5c-.4 0-.5-.2-.5-.7v-.3c0-.4.1-.7.5-.7h.5v1.7zm.4.2v-2.8s0-.1-.1-.1h-.2s-.1 0-.1.1v.7h-.5c-.6 0-.9.3-.9 1v.3c0 .6.3 1 .9 1 .3 0 .6 0 .9-.2 0 .1 0 .1 0 0M74.5 59.2h-1c0-.4.2-.6.5-.6.3-.1.5.1.5.6zm.3.2v-.2c0-.6-.3-.9-.9-.9-.6 0-.9.4-.9.9v.4c0 .7.4.9.9.9.3 0 .5 0 .7-.1.1 0 .1 0 .1-.1v-.1s0-.1-.1-.1h-.7c-.4 0-.5-.2-.5-.6v-.1h1.4c0 .1 0 0 0 0M75.6 60.4v-2.8s0-.1-.1-.1h-.2s-.1 0-.1.1v2.8s0 .1.1.1l.3-.1M78.1 60c-.2.1-.4.2-.5.2-.2 0-.4-.1-.4-.4 0-.3.1-.4.6-.4h.3v.6zm.4.4V59c0-.5-.2-.7-.8-.7-.3 0-.4 0-.6.1-.1 0-.1 0-.1.1v.1c0 .1 0 .1.1.1h.6c.3 0 .4.1.4.4v.2h-.3c-.7 0-.9.2-.9.6 0 .5.3.6.6.6.2 0 .4-.1.6-.2v.1s0 .1.1.1l.3-.1c-.1 0 0 0 0 0M80.3 60.6c0 .2-.1.3-.6.3-.4 0-.6-.1-.6-.4 0-.2.1-.3.2-.4l.4.1c.5.2.6.2.6.4zm0-1.6c0 .2-.1.4-.5.4-.5 0-.5-.2-.5-.4s.1-.4.5-.4c.4-.1.5.1.5.4zm.4-.5v-.1s0-.1-.1-.1h-.9c-.7 0-.9.3-.9.7 0 .2.1.3.2.5-.1.1-.2.2-.2.3 0 .1.1.3.2.3-.1.1-.2.3-.2.5 0 .4.3.6.9.6.6 0 .9-.2.9-.6 0-.4-.4-.5-.8-.6l-.6-.2c-.1 0-.1-.1-.1-.1 0-.1 0-.1.1-.1s.2.1.5.1c.6 0 .9-.2.9-.7 0-.2-.1-.3-.1-.4l.2-.1M82.7 60.4v-2s0-.1-.1-.1h-.2s-.1 0-.1.1V60c-.2.1-.4.2-.5.2-.3 0-.4-.1-.4-.5v-1.3s0-.1-.1-.1h-.2s-.1 0-.1.1v1.3c0 .5.2.8.7.8.2 0 .4-.1.6-.2v.1s0 .1.1.1l.3-.1M84.3 60c-.2.1-.4.2-.5.2-.2 0-.4-.1-.4-.4 0-.3.1-.4.6-.4h.3v.6zm.4.4V59c0-.5-.2-.7-.8-.7-.3 0-.4 0-.6.1-.1 0-.1 0-.1.1v.1c0 .1 0 .1.1.1h.6c.3 0 .4.1.4.4v.2H84c-.7 0-.9.2-.9.6 0 .5.3.6.6.6.2 0 .4-.1.6-.2v.1s0 .1.1.1l.3-.1c-.1 0 0 0 0 0M49.2 56.1v-2.2s0-.1-.1-.1h-.5s-.1 0-.1.1v1.6c-.1.1-.3.1-.4.1-.2 0-.3-.1-.3-.4v-1.4s0-.1-.1-.1h-.5s-.1 0-.1.1v1.4c0 .5.1.9.7.9.3 0 .4-.1.7-.2v.1s0 .1.1.1h.6c0 .1 0 0 0 0M52.5 54.2v-.4s0-.1-.1-.1c-.2 0-.4.1-.6.2v-.1s0-.1-.1-.1h-.5s-.1 0-.1.1V56s0 .1.1.1h.5s.1 0 .1-.1v-1.6c.3 0 .4-.1.7-.2 0 .1 0 .1 0 0M58.7 55.6c-.1 0-.2.1-.3.1-.2 0-.3 0-.3-.2s.1-.3.4-.3h.2v.4zm.6.5v-1.5c0-.6-.4-.8-1-.8-.3 0-.6 0-.7.1 0 0-.1 0-.1.1v.3c0 .1 0 .1.1.1h.7c.2 0 .3 0 .3.3v.1h-.2c-.7 0-1 .2-1 .7 0 .5.3.7.7.7.2 0 .4-.1.6-.2v.1s0 .1.1.1l.5-.1c0 .1 0 0 0 0M62.7 56.3c0 .1-.1.2-.4.2-.3 0-.4-.1-.4-.2s0-.2.1-.3l.3.1c.4.1.4.1.4.2zm0-1.7c0 .2-.1.3-.4.3-.3 0-.4-.1-.4-.3 0-.2.1-.3.4-.3.3 0 .4.1.4.3zm.7-.5v-.2c0-.1 0-.1-.1-.1h-1c-.7 0-1 .3-1 .8 0 .2.1.4.2.5-.1.1-.2.2-.2.3 0 .1.1.3.2.4-.2.1-.2.3-.2.5 0 .4.4.7 1 .7.7 0 1.1-.2 1.1-.7 0-.4-.2-.5-1-.7l-.4-.1c-.1 0-.1 0-.1-.1 0 0 0-.1.1-.1s.2.1.4.1c.6 0 1-.2 1-.8 0-.1 0-.2-.1-.3l.1-.2c0 .1 0 .1 0 0M66.7 54.8H66c0-.3.1-.5.4-.5.1 0 .3.2.3.5zm.6.3v-.2c0-.6-.3-1.1-1-1.1-.6 0-1 .4-1 1.1v.3c0 .8.5 1.1 1 1.1.4 0 .6 0 .8-.1.1 0 .1 0 .1-.1v-.3s0-.1-.1-.1h-.8c-.3 0-.4-.2-.4-.4l1.4-.2c0 .1 0 .1 0 0M71.3 56.1v-1.4c0-.5-.1-.9-.7-.9-.3 0-.4.1-.7.2v-.1s0-.1-.1-.1h-.5s-.1 0-.1.1v2.2s0 .1.1.1h.5s.1 0 .1-.1v-1.6c.1-.1.3-.1.4-.1.2 0 .3.1.3.4v1.4s0 .1.1.1l.6-.2c-.1.1 0 0 0 0M74.6 56.1v-.3s0-.1-.1-.1h-.2c-.1 0-.1 0-.1-.2v-1.2h.3s.1 0 .1-.1v-.3s0-.1-.1-.1h-.3v-.4s0-.1-.1-.1l-.5.1s-.1 0-.1.1v.3h-.3s-.1 0-.1.1v.3s0 .1.1.1l.3.1v1.2c0 .6.2.7.7.7.1-.1.2-.1.4-.2 0 .1 0 0 0 0M78.2 56.1v-.4s0-.1-.1-.1h-.8l.8-1.2V54c0-.1-.1-.1-.1-.1h-1.5s-.1 0-.1.1v.4s0 .1.1.1h.8l-.9 1.2c0 .1-.1.1-.1.2v.1c0 .1.1.1.1.1h1.8c0 .1 0 0 0 0M80.8 56.1v-2.2s0-.1-.1-.1h-.5s-.1 0-.1.1v2.2s0 .1.1.1l.6-.1c0 .1 0 0 0 0m0-2.6v-.4s0-.1-.1-.1h-.5s-.1 0-.1.1v.4s0 .1.1.1l.6-.1M84 55.6c-.1 0-.2.1-.3.1-.2 0-.3 0-.3-.2s.1-.3.4-.3h.2v.4zm.7.5v-1.5c0-.6-.4-.8-1-.8-.3 0-.6 0-.7.1 0 0-.1 0-.1.1v.3c0 .1 0 .1.1.1h.7c.2 0 .3 0 .3.3v.1h-.2c-.7 0-1 .2-1 .7 0 .5.3.7.7.7.2 0 .4-.1.6-.2v.1s0 .1.1.1l.5-.1c-.1.1 0 0 0 0" class="st0"/></g></svg>