<svg viewBox="0 0 80 62"><path fill="#cdcccc" d="M59.7 15.4c.3.5.5.9.7 1.3.3 0 .6 0 .9.1.4 0 .7.3.8.8.1.8.4 1.7-.1 2.4-.3.5-.5.9-.6 1.4 0 .1-.1.3-.2.4-.4.5-.7.9-1.2 1.4.5.3.7.7.5 1.2 0 .1 0 .2.1.3.2.4.5.8.7 1.2.1.2.2.4.1.6 0 .5-1.2 2-1.7 2.3v.1c.2 1.3 0 1.8-1.3 2.2-.4.2-.5.4-.6.8 0 .3-.1.6-.2 1h21.6v18.3H.5V33h21.6c-.1-.5-.1-.9-.3-1.3-.1-.2-.3-.4-.5-.5-.5-.4-1.3-.5-1.4-1.3v-1c-1-.3-1-1.4-1.6-2.1-.1-.1-.1-.5 0-.7.2-.5.5-.9.8-1.4 0-.1.1-.2.1-.3-.2-.5 0-.8.5-1.2-.3-.4-.7-.8-1-1.3l-.2-.2c-.6-1.3-1.4-2.5-.9-4.1.2-.6.7-1 1.3-.9.1 0 .3 0 .5.1.1-.2.1-.5.3-.7.1-.2.3-.4.5-.6-.3-.3-.7-.7-1-1.1-.1-.2-.3-.4-.3-.5 0-.7 0-1.4.2-2.1.1-.2.5-.4.8-.5.2-.1.4 0 .7 0 .2-.7.3-1.5.5-2.2.2-.6.6-.9 1.2-.9s.9-.4 1.1-.8c.6-.6 1-1.2 1.7-1.4.6-.2.6-.7.5-1.2h.7c.4-.8.7-1.6 1.6-1.8.8-.2 1.5-.6 2.4-.3.3.1.8 0 1-.6.1-.5.6-.7 1.1-.8.5 0 1 .3 1.2.7.3.5.3.5.7 0 .2-.3.6-.5 1-.7h.2c.5-.8 1.2-.7 2-.7 1.1 0 1.7.7 1.3 1.7-.1.2-.1.4-.1.6-.1.3-.3.6-.5 1-.1.2-.2.5-.4.8h4.6c-.1-.2-.1-.4-.2-.5-.7-.5-.6-1.3-.8-2.1-.2-.8.2-1.4 1-1.4.5 0 1-.1 1.5.1.6.2 1.1.6 1.7.9.1.1.2.3.3.4.1.1.2.3.4.4.1-.2.3-.3.4-.5.2-.5.6-.6 1.1-.7.6 0 1 .3 1.2.8.2.5.6.6 1.1.5 1.4-.3 3 .4 3.7 1.7.1.2.5.3.8.4l.1.1c-.1.7.3.9.8 1.3.4.2.7.7 1 1 .4.5.7 1 1.4 1s1.1.7 1.2 1.5c.1.5.2.9.3 1.4 0 .1.2.2.4.2.9.1 1.2.4 1.2 1.3 0 .3.1.6.1.8 0 .6-.2.9-.6 1.3-.5.3-.7.6-.8.8zM38.3 19c.4.1.9.1 1.3.2V5.5H26.2v12c.6-.5 1.2-.9 1.1-1.8-.1-.5-.1-1 .2-1.5.2-.3.2-1.1 0-1.4-.6-.6-.2-1.2-.3-1.8.4.4.7.4 1.1-.1V12h.4c.1-.5.1-1 .2-1.6.4.4.9.1 1.3.1v1.4h.4c.1-.3.1-.6.2-.9.3.2.5.7.7.1.1 0 .3.1.3.1 0 .5 0 1-.2 1.5-.1.3-.3 1.3-.2 1.6.1.3.2.7.3 1v1c0 .2.2.3.2.5h.2c.1-.6.4-1.2.4-1.8.1-.9 0-1.9 0-2.8 0-.6.3-1.1.8-1.3.2-.1.7.2 1.1.4.2.1.3.3.5.4-.3.5-.2 1.2-.9 1.1 0 .5-.1 1-.1 1.5 0 .7.1 1.4.3 2.1.1.4 0 .8-.3 1.1-.3.2-.5.5-.7.7.3.6.7.8 1.4.8.8 0 1.5.1 2.3.1.5-.1 1-.1 1.4-.1zm15.4 1.6V5.5H40.4v15.1h13.3zm2.8-4.2c-.3-.2-.5-.3-.5-.4-.1-.9-.6-1.5-1.4-1.9.1-.4.3-.7.2-1-.3-1.1.2-2.1.6-3 .2-.5.6-1 1-1.6-.6-.2-.7-.7-.9-1.2-.2-.4-.6-.6-.9-.9-.1 0-.1.1-.2.1v9.9c0 .5-.3 1.2.5 1.4 0 0 0 .1.1.1.2.7 1 .8 1.5 1.2.1.1.3.2.3.3.1.6.1 1.1.1 1.7-.4-.1-.6-.3-.8-.5-.3-.5-.5-1-.9-1.4-.2-.2-.5-.3-.9-.6v5.1c0 .7.7 1.4 1.5 1.3.6-.1.8.2.9.7 0 .1.1.3.2.5.1-.2.2-.3.3-.4.2-.4.5-.9 1.1-.7.2.1 1-.6 1-.8 0-.1-.1-.3-.2-.4-.3-.2-1.2.3-1.3.6-.1.3-.3.5-.5.7-.1 0-.1-.1-.2-.1.1-.3.1-.5.2-.8.2-.7.5-1.3 1.5-1.4.3 0 .7-.3.7-.6.1-.5.4-.6.7-.9.3-.2.4-.6.5-.9.1-.2 0-.4.1-.5.8-.6.4-1.4.5-2.2 0-.1-.2-.3-.3-.4-.4-.1-.9-.3-1.2.3 0 .1-.2.1-.2.2-.4.4-.9.7-1.3 1.2-.2.2-.1.6-.2.9-.1.6-.1 1.3-.2 1.9-.2 1-.8 1.9-1.3 2.8-.3-.3-.4-.6 0-1 .1-.1.2-.3.3-.5l.3-3.3c0-.4 0-.9.1-1.3s.5-.9.8-.9c.8 0 .7-.7 1-1 .1-.1 0-.5-.1-.6-.2-.2-.5-.2-.7.1-.1.1-.2.3-.3.3-.5-.1-.5.3-.4.5.2.5-.1.7-.4 1-.6-1 .1-2.7 1.2-2.9.1 0 .3-.1.3-.2.4-.4.8-.8 1.1-1.3.2-.2.1-.6.2-.9 0-.1 0-.2-.1-.4 0-.2-.1-.5-.2-.5-.3-.1-.6 0-.9 0 0 0-.1.1-.1.2-.2.7-.5 1.5-.7 2.2 0 .1-.1.2-.2.3-.3.4-.7.8-1.1 1.2-.1-.2-.1-.4-.2-.6-.1-.4-.1-.7.4-1 .3-.1.4-.6.6-1 .1-.1 0-.3.1-.4.5-.7.4-1.5.4-2.3 0-.5-.2-1.1-.3-1.6-.1-.2-.3-.5-.4-.5-.2 0-.5.2-.6.4-.2.3-.2.8-.4.9-.6.3-.5.8-.6 1.3-.2.7-.2 1.2-.2 1.9 0 .6.1 1 .5 1.3.1.1.2.2.2.3.2.9.2 1.4.3 2zm-32.8-.1s-.1 0-.1-.1c0-.5.1-1 .1-1.5 0-.1.1-.2.2-.2.5-.3.6-.8.6-1.3 0-.2.1-.4.1-.6-.1-.8-.3-1.5-.5-2.3-.5-.2-.7-.6-.8-1.1-.1-.4-.7-.6-.9-.3-.2.4-.5.8-.5 1.2-.1.8 0 1.7 0 2.5 0 .1.1.3.2.4.1.1.2.2.2.3 0 .7.4 1.2 1.2 1.4-.1.5-.2.9-.3 1.4-.2-.4-.3-.7-.5-.9-.7-.5-1-1.1-1.2-1.9-.1-.3-.2-.6-.4-1-.1-.2-.3-.4-.3-.4-.3.1-.8-.3-.9.3-.2.9.1 1.7.8 2.4.3.2.5.7.8.7 1 .1 1.2.9 1.4 1.6.1.4.2.9-.1 1.4-.5-.4-.4-.4-.4-1 0-.2-.1-.4-.1-.6-.4.2-.5-.2-.7-.4-.3-.2-.5-.2-.7.1-.2.3.3 1.4.7 1.5.8.2 1.2.7 1.3 1.5 0 .8 0 1.7.1 2.5 0 .7.1 1.4.5 2.1.3.4.2.7-.2.9-.1-.4-.2-.7-.3-1-.1-.3-.4-.5-.6-.8 0 0-.1-.1-.1-.2-.1-.6-.5-1.1-.2-1.8.1-.1-.1-.3-.2-.5 0-.2-.1-.3-.1-.5.1-.5-.1-.9-.5-1.2-.4-.3-.9-.7-1.2-1.1-.4-.5-.8-.4-1.2-.3-.4.1-.3.5-.3.8v.4c-.1.5.1.9.4 1.2.1.1.2.2.2.3 0 .6.1 1 .7 1.3.2.1.5.3.6.6.1.6.4.8.9.9 1 .2 1.6 1.1 1.4 2.2-.2-.2-.4-.5-.5-.7-.3-.2-1.3-.6-1.5-.5-.1.1-.2.3-.2.5 0 .3.9.8 1.2.7.3-.1.5 0 .6.3l.6.9c0-.2.1-.3.1-.3.2-.5.3-1 1.1-1 .9 0 1.4-.6 1.4-1.5v-1.4V19c-.1 0-.1-.1-.2-.1-.3.2-.6.4-.8.7-.5.6-.9 1.2-1.4 1.9-.4-.8 0-1.5.1-2.1.6-.4 1.1-.7 1.6-1.1.1-.1.1-.2.2-.3 0-.1.1-.2.1-.2.4-.1.4-.4.4-.8V7v-.7c-.4.3-.7.5-1 .9-.3.4-.5 1-.8 1.5.3.4.7.9.9 1.4.3.8.5 1.7.6 2.6 0 .3-.1.7 0 1.1 0 .1-.1.4-.2.4-.7.3-.9.9-1.1 1.6 0 .2-.2.4-.3.5zm15.9 5H26.2V31.1c0 .7.6 1.2 1.3.9.2-.1.4-.1.5-.3.2-.1.4-.4.4-.5 0-.4.3-1-.3-1.3-.8-.4-1.1-1.2-1.2-2.1-.1-1.4.4-2.6 1.1-3.7.6-1 1.3-1.1 2-.1.4.6.7 1.4 1 1.9.3-.6.7-1.4 1.1-2.1.5-.7 1.1-.8 1.6-.1.5.7.8 1.4 1.2 2.1.1-.3.2-.6.4-.9.2-.3.3-.7.5-1 .5-.8 1.1-.9 1.7-.2.9.9 1.2 2.1 1.3 3.4.1 1.3-.1 2.4-1.5 3v1.4c.7.3 1.3.8 2.1.3.2-3.5.2-7 .2-10.5zm.8 0V41c.2-.2.3-.4.5-.4.6-.2.7-.7.7-1.2V22v-.6c-.5-.1-.8-.1-1.2-.1zm1.4 0v18.8c.4-.3.7-.6 1-.8V21.2c-.3.1-.6.1-1 .1zm1.3 0v18c.4-.1.7-.2 1-.3V21.3h-1zm1.4 0V39c.4-.1.7-.1 1-.2V21.3h-1zm2.3 17.4V21.4h-1v17.4c.4-.1.7-.1 1-.1zm.3-17.4v17.3c.4 0 .7-.1 1-.1V21.3h-1zm2.4 17.2V21.3h-1v17.2c.4.1.7 0 1 0zm.3-17.2v17.2c.4-.1.7-.1 1-.2v-17h-1zM23 30.4c-.4 1.4 0 2.4.9 3.4.5.5 1 .8 1.7.6v-1.7c0-.4 0-.8-.5-.9-.1 0-.2-.2-.2-.2 0-.6-.4-.9-.7-1-.2-.6-.4-1-.6-1.5-.1-.1-.1-.3-.1-.4.1-.7-.6-1.7-1.2-2-.2-.1-.3-.2-.4-.4-.2-.3-.4-.5-.8-.3-.2.1-.4 0-.5-.1-.3-.2-.6-.4-.8.1 0 .1-.2.2-.2.3-.2.3-.2.6.1.7.3.1.4.3.4.6 0 .4.3.7.7.7.2 0 .4.1.4.3.2.4.4.4.8.3 1.1-.3 1.8.3 1.7 1.7-.5-.5-.9-.9-1.3-1.2h-.7c-.2.1-.5.2-.6.3-.1.1 0 .5.1.5.3.2.7.3 1 .4.2 0 .4-.2.6-.3 0-.1.1 0 .2.1zm31.4 4c.6.1 1.2 0 1.6-.4.4-.5 1-.9 1.1-1.6.1-.5.2-1.1.1-1.6-.1-.4 0-.5.2-.6.3.1.5.3.6.3.2 0 .5-.1.7-.2.3-.1.5-.2.4-.5 0-.3-.2-.5-.5-.5-.2 0-.5.1-.6 0-.4-.3-.5 0-.6.3-.2.4-.6.6-1 .8 0-1.1.7-1.8 1.6-1.6.5.1.7 0 1.1-.3.5-.4 1.1-.6 1.1-1.3.7-.3.5-.7.2-1.2-.2-.4-.5-.4-.8-.1-.2.1-.4.1-.6 0-.4-.2-.6 0-.7.3-.1.1-.2.3-.4.3-.6.2-1.4 1.3-1.4 1.9 0 .2 0 .4-.1.6-.1.4-.3.9-.4 1.3-.2.2-.6.4-.7.7-.1.4-.2.7-.7.8-.1 0-.1.2-.1.3-.1.8-.1 1.5-.1 2.3zm-1.9-13.1v16c.7-.9 1.2-1.8 1.2-3V21.8v-.6h-.6c-.2.1-.4.1-.6.1zm-1.3 16.9c1-.3 1.1-.4 1.1-1.3v-15-.6h-1.1v16.9zm-11.6-4.7c0 .1-.1.1-.1.2-.5-.1-1-.2-1.5-.4-.8-.3-1.6-.3-2.4.1-.3.2-.9.3-1.1.1-1-.6-1.9-.6-2.9 0-.5.3-.9.2-1.3-.1-.8-.5-1.6-.4-2.5.1-.3.2-.7.1-1.1.1-.2 0-.3-.1-.6-.2.2.6.2 1.1.4 1.4.4.5.9.3 1.4 0 .7-.4 1.5-.6 2.3-.1.5.4 1.1.3 1.6 0 .9-.5 1.7-.5 2.6.1.4.3.8.2 1.3 0 .9-.5 1.8-.6 2.8 0 .7.4 1.2.1 1.2-.7-.1-.2-.1-.4-.1-.6zm0 3.1c-.4 0-.9.1-1.2-.1-1-.6-2-.5-3 0-.3.1-.7.1-1 0-1-.6-1.9-.6-2.9 0-.4.3-.8.2-1.2-.1-.7-.4-1.5-.5-2.3-.1-.3.2-.7.3-1 .5.1.1.1.2.2.4.3.4.6.7 1.2.4.6-.3 1.2-.1 1.7.2.6.4 1.1.3 1.6 0 .8-.5 1.6-.4 2.3 0 .6.3 1 .3 1.6 0 .4-.2.9-.3 1.4-.3.4 0 .8.2 1.1.4.8.4 1.3.1 1.3-.7.2-.3.2-.5.2-.6zM11 44.4v3.4c0 .2-.1.5-.3.5-1.1.3-1.9.2-1.9-1.1 0-.3 0-.5.1-.8.1-.7.3-1.4.4-2-1.6-.1-1.6-.1-2 .9h.5c-.1.7-.2 1.5-.2 2.2 0 1 .5 1.8 1.3 1.9.6.1 1.2 0 1.8-.1.1 0 .3-.1.3-.1.4.5.8 0 1.1 0 0-.8-.1-1.6-.1-2.4v-2.4h-1zm12.9 5c1.6 0 2.5-.8 2.5-2.4 0-2-1-2.6-2.3-2.7-1.6-.1-2.6.9-2.6 2.3-.1 1.9.7 2.8 2.4 2.8zm18.2-.2c-.4-1.6-.3-3.2-.1-4.8h-1.3v3.5c0 .1-.1.3-.2.3-.5 0-1.1.2-1.5 0-.5-.1-.6-.7-.5-1.2.1-.9.3-1.8.5-2.7-1.3-.3-1.5-.2-1.9.9h.5c-.1.7-.1 1.3-.2 2-.1 1 .5 2 1.3 2.1.6.1 1.2 0 1.8-.1.1 0 .3-.1.3-.1.5.5.9.1 1.3.1zm13.6.1c0-1.3-.3-2.5-.8-3.7-.3-.9-.9-1.4-1.9-1.2h-.2c-.9 0-.9 0-1.1.9.3 0 .6-.1 1-.1-.9 1.3-1.6 2.5-1.5 4.1h1.1c0-.5.1-.9.1-1.4.4.2.7.5 1.1.5.3 0 .7-.2 1.1-.4v1.3h1.1zm20.4 0c.1-1.3-.3-2.4-.7-3.6-.4-1-1-1.5-2.2-1.4-.9.1-.9 0-1.1 1 .3 0 .6-.1 1-.1-.9 1.3-1.6 2.5-1.5 4.1h1.1c0-.5.1-.9.1-1.4.4.2.7.5 1.1.5.3 0 .7-.3 1.1-.4v1.3h1.1zm-39.2 0c0-1.3-.3-2.5-.7-3.6-.4-1-1-1.5-2.1-1.3-.9.1-.9 0-1.1.9.3 0 .6-.1.9-.1-.9 1.3-1.6 2.5-1.5 4.1h1.1c0-.5.1-.9.1-1.5.8.7 1.4.7 2.1.1v1.4h1.2zm23.9.4c-.5-.7-.9-1.4-1.3-2.1-.1-.1 0-.5.1-.6.4-.5.5-1 .3-1.6-.2-.5-.6-.9-1.2-.9h-1.6c-.8 0-.8 0-1.1.9h.6v4h1.2c0-.6-.1-1.2-.1-1.8l.1-.1c.2.1.3.2.5.3.2.2.3.5.4.7.5.7 1.2 1.2 2.1 1.2zm-16.4-.4c0-.6-.1-1.2-.1-1.8.1 0 .1-.1.2-.1.2.1.4.3.6.4.3.3.4.7.7 1 .5.5 1 .9 1.7.9-.4-.7-.8-1.4-1.3-2-.2-.3-.2-.5.1-.8.5-.4.4-1 .3-1.5-.1-.5-.6-.8-1.1-.9-.6 0-1.1 0-1.7-.1-.8 0-.8 0-1 .9h.6v4h1zm-22.9-.4l-2.4-2.1c.7-.7 1.4-1.3 2.1-1.9-.6-.6-.8-.6-1.4 0l-.3.3c-.4.5-.8.9-1.2 1.4 0 0-.1 0-.1-.1 0-.7.1-1.3.1-2-1.2-.3-1.6-.1-1.9.9.2 0 .4 0 .6-.1v4.1h1.3c-.2-.7-.2-1.3.1-2.1.2.2.3.4.4.5.4.5.8.9 1.2 1.4.3.3.6.3.9.1.3-.2.4-.4.6-.4zm45.9-3.5c.6 0 1.2-.1 1.9-.2-.8 1.4-1.6 2.7-2.4 4.1h3.3c.8 0 .9-.2.8-1h-2.2c.8-1.3 1.5-2.6 2.3-3.9h-2.7c-.9 0-.9 0-1 1zM5.2 47.2h1.4c0-.3.1-.5.1-.9H5.2v-1h1.6c.3-.9.3-.9-.6-.9-.5 0-1 0-1.4-.1-.9-.1-.9-.1-1.2.9h.6v4.1h2.2c.8 0 .8 0 .9-.9H5.4c-.2-.4-.2-.8-.2-1.2zM46 3.3c-.4.1-.6 0-.7-.4 0-.3-.4-.5-.7-.7-.1-.1-.3-.2-.5-.3-.3-.2-.4-.6-.9-.5-.2.1-.4 0-.7 0-.4-.1-.9.2-.7.5.2.5.2 1 .3 1.4 0 .1.1.3.2.3.3.1.3.3.3.6.1.2.3.6.5.6.9.1 1.9 0 3 0 .1-.6 0-1-.1-1.5zm-8.8.4c.5-.1.7-.5.6-.9 0-.2.2-.4.2-.6 0-.2 0-.5-.1-.7-.1-.2-1.6 0-1.8.2-.1.1-.3.3-.4.5-1-.3-.8.6-1.1 1.1-.6 0-.9.5-.6 1.4h2.3c.7.1 1-.1.9-1zM16.1 44.6c-.7-.3-1.4-.3-2-.2-.5.2-1 .5-1.1 1.1-.1.6.2 1 .7 1.3.3.2.7.4 1 .6.2.1.3.4.3.6-.1.2-.4.4-.5.4-.5 0-1-.2-1.4-.2-.3.9-.1 1.2.9 1.2h.7c.7 0 1.5-.6 1.6-1.1.2-.7-.1-1.3-.9-1.7-.3-.2-.7-.3-1-.5-.1-.1-.3-.3-.2-.5 0-.1.3-.3.4-.3.4 0 .8.1 1.2.2l.3-.9zm50.9-.2h-2.8c-1 0-1 .1-1.1 1 .4 0 .9-.1 1.3-.1v4h1.2v-4c1.4 0 1.4 0 1.4-.9zm-37.9 5.9c.5.4.8.4 1.2.1.6-.5 1.1-1 1-1.9 0-1.3 0-2.7.1-4-1.5-.1-1.5-.1-1.8.8.2 0 .4 0 .6-.1v2.6c0 1 0 1.9-1.1 2.5zm18.8-1h1.9c.9 0 .9 0 .9-1-.5 0-1 0-1.6.1v-2.1c0-.7.1-1.3.1-2-1.8-.1-1.5-.2-1.9.9.2 0 .4-.1.6-.1v4.2zm6.5-18.8c.9-.5 1.4-1.1 1.5-2 .1-.8.7-1.6.1-2.4-.2-.1-.4-.3-.6-.3-.2-.1-.5-.1-.7 0-.2.1-.4.3-.4.5.1 1.3.1 2.7.1 4.2zm-28.8 0v-4.4c0-.1-.1-.3-.2-.3-.4-.3-1.3 0-1.5.4 0 .1 0 .1-.1.2 0 .3 0 .5-.1.8.1.4.2.8.4 1.2.1.5.3.9.4 1.4 0 .1.1.1.2.1.3.2.5.3.9.6zm4.1-.2c-.1 1.1.3 1.7 1.3 1.7.5 0 1.1-.2 1.4-.5.2-.3.1-.9.1-1.2-.6-.5-1-.9-1.4-1.3-.4.4-.9.8-1.4 1.3zm6.7 0c-.5-.5-1-.9-1.4-1.2-.4.4-.9.8-1.4 1.2v1.2c.2.1.5.2.7.3.7.4 1.3.1 1.9-.2.4-.2.2-.7.2-1v-.3zm24.9 14.1v4.9h1.2v-4.9h-1.2zm-34-39.7H32c-.4-.4-.7-.8-1-1.1-.4-.1-.7-.2-1-.3-.3 0-.7.1-1 .1-.2 0-.3.2-.5.2-.8.1-1 .2-1.2 1.1zm21.8-1.1c-.3.3-.6.7-1 1.1h4.8c0-1.4-1.4-.8-1.9-1.4-.1-.1-.5 0-.7 0h-.1c-.5.1-.8.2-1.1.3zM35 39.7c-.4-.1-.8-.1-1.1-.2-.7-.1-.9 0-1.2.7-.2.5.1 1 .6 1 .8.1 1.5-.6 1.7-1.5zm10 0c.3 1 1 1.6 1.7 1.5.5 0 .7-.2.7-.7 0-.5-.4-1.1-.8-1.1-.5.1-1 .2-1.6.3zm2-34.9c.1-.1.2-.1.3-.3.1-.1.1-.3.2-.3.8-.3.7-1 .6-1.6 0-.2-.2-.4-.4-.5-.1-.1-.4.1-.5.2-.1.2-.2.6-.3.6-.5.2-.3.5-.2.7.1.4.2.7.3 1.2zm-13.9 0c0-.3-.1-.6 0-.8.7-.7-.1-1.2-.3-1.7-.2-.4-.6-.3-.8 0-.2.3-.1 1.4.1 1.6.3.3.7.4.7.9 0-.1.2-.1.3 0zm4.5 35.8c-.1 0-.1-.1-.2-.1-.4-.1-.7-.2-1.1-.4-.5-.3-.7.1-.9.4-.2.4 0 .7.4.9.8.3 1.3 0 1.8-.8zm4.8-.1c.5.9 1.1 1.1 1.8.8.4-.2.5-.6.3-1s-.4-.5-.8-.3-.8.4-1.3.5zm-2.8.5v-1.3l-3-.6v.2c.4.1.7.2 1.1.3l-.1.1c.3.2.6.3.9.5.3.2.7.5 1.1.8zM30 16.5c0-.3.1-.6 0-.8-.1-.2-.3-.3-.4-.5-.2.2-.4.3-.4.5-.1.3 0 .6 0 .9.2-.1.4-.1.8-.1zm.4-2.8v-.6l-.1-.1c-.1.1-.3.2-.3.4-.2.2 0 .4.4.3zM29 13c-.4-.1-.6 0-.5.3 0 .1.2.3.3.4l.1-.1c.1-.1.1-.3.1-.6zM.7 61.3v-9.4h78.7v9.4H.7zm38.1-4.1c-.7-1-1.4-1.8-2-2.8-.5-.7-1.1-.4-1.7-.4-.2 0-.3.5-.6.9h.8v4h1.2v-3.4c.7 1 1.4 1.9 2 2.8.4.6.8.7 1.5.5V54h-1.2v3.2zm-22.1-.7c0-2-1.1-2.5-2.3-2.5-1.8 0-2.6.8-2.6 2.5 0 1.5.6 2.4 2.3 2.5 1.4.1 2.8-.6 2.6-2.5zM71 59c1.6 0 2.5-.9 2.5-2.5 0-1.8-.9-2.5-2.4-2.5-1.8-.1-2.6.9-2.6 2.5 0 1.5.8 2.6 2.5 2.5zm-29.9-2.5c0 1.6.8 2.5 2.4 2.5 1.7 0 2.6-.9 2.6-2.5 0-1.8-.9-2.5-2.4-2.5-1.7-.1-2.6.8-2.6 2.5zM21 56.3c.5-.4.7-.9.4-1.5-.2-.5-.6-.8-1.2-.8h-1.7c-.9 0-.9 0-1.2.9.2 0 .5-.1.7-.1v4.1h2.1c.7 0 1.2-.4 1.4-1.1.4-.6.1-1.1-.5-1.5zm35-1.5c-1 1.3-1.7 2.5-1.6 4.1h1.1c.1-.5.1-.9.2-1.4.7.7 1.4.7 2.1.1V59h1.3c0-1.2-.3-2.4-.7-3.5-.8-1.5-.8-1.5-2.4-1.5h-.1c-.8 0-.8 0-1 .9.4 0 .7 0 1.1-.1zm-45.5.3c.3-.8.3-.8-.6-1-.5-.1-1.1-.1-1.6 0-1.3.2-1.8 1.3-1.9 2.5 0 1.2.8 2.2 2 2.4.6.1 1.3-.1 2-.2.1 0 .2-.2.2-.3v-2.3c-1.4-.2-1.6-.2-2 .9.3 0 .6-.1.9-.1.2 1 .2 1.1-.5 1.1-.8 0-1.2-.5-1.3-1.4-.1-.9.3-1.7 1.1-1.7.5-.1 1.1 0 1.7.1zm19.7-.2V59h1.2c0-.6-.1-1.3-.1-2 .8.3.9 1.1 1.4 1.6.5.4 1 .9 1.7.8L32.9 57c.7-.7.9-1.4.6-2-.4-.7-1-.9-1.7-.8H30c-.1.2-.2.5-.3.8.2-.1.3-.1.5-.1zm19.4-.1c.4 1.6 1.1 2.9 2.1 4.4.9-1.8 1.7-3.5 2.6-5.2h-.8c-.4 0-.5.1-.7.5-.3.9-.7 1.7-1.1 2.8-.5-1.1-1.2-2-1-3.2h-1c-.8 0-.8 0-1 .9.3-.1.6-.1.9-.2zm-23.7.1V59h2.2c.8 0 .9-.1.8-.9h-1.8v-1.2h1.3c.1-.3.1-.6.2-.9h-1.5v-1c.4 0 .8-.1 1.1 0 .5.1.5-.3.6-.5 0-.1-.3-.3-.5-.4h-1.9c-.8 0-.9.1-1 .9.2-.1.3-.1.5-.1zm42-.6c-.4-.1-.8-.2-1.1-.3-1.1-.2-2.1.2-2.5 1-.5.9-.5 2.4.1 3.1.7.8 1.6.9 2.5.8 1-.1 1.1-.3.9-1.3-.8.4-1.7.7-2.4-.1-.4-.4-.4-1.6 0-2.1.7-.9 1.5-.6 2.4-.2-.1-.3 0-.5.1-.9zm-8.1 3.6c0 .3-.4.9.3 1 .7.1 1.4 0 2.1-.1.4-.1.8-.5.9-1 0-.6 0-1.1-.6-1.4-.4-.2-.7-.4-1.1-.6-.2-.1-.3-.4-.4-.6.3-.1.5-.3.8-.3.3 0 .7.2 1.1.3-.1-.4.5-.9-.3-1.1-.5-.1-1.1 0-1.7.1-.6.1-.9.5-1 1.1-.1.6.2 1 .7 1.3.4.2.8.4 1.1.7.4.3.3.8-.2.8-.6 0-1.1-.2-1.7-.2zM24.3 59v-4.9H23V59h1.3zm14-40c.2-.1.4-.1.7-.2-.1-.7-.2-1.4-.3-2.2v-2.3c0-.4.2-.8.2-1.2h.2c-.1-.1-.3-.3-.5-.4-.5.8-.1 1.6-.3 2.3-.4-.3-.5-.7-.3-1.1.1-.1 0-.2 0-.4 0-.5 0-1 .1-1.4 0-.1.1-.3.2-.6-.9.1-1.6.2-2.4.4v.5c.1 0 .1 0 .2.1.2.1.4.2.6.4 0 0-.1.3-.2.3-.2-.1-.5-.1-.7-.3-.2-.2-.4-.4-.5-.6-.2.2-.4.3-.6.5.3.4.6.8 1 1.3-.3.2-.5.4-.9.8.8-.3.5.2.7.5.2-.1.4-.3.5-.3.1-.1.4-.1.5 0 .1.1.1.4.1.5-.2.4-.5.8-.7 1.2.1.2.2.3.3.4-.2.4-.4.8-.6 1.1.2.2.4.3.7.5.4-.7.7-1.5 1.1-2.2.1.4.1.8.3.9.6.2.4.7.4 1.1.1.1.2.2.2.4zM32 11.5c.1 0 .1.1.2.1.5-.6 1.1-1.1 1.6-1.7l-.1-.1c-.2.2-.4.3-.6.5-1.6-1.4-3.3-2.7-4.9-4.1 1.5 1.5 3 3 4.6 4.5-.5.4-.6.6-.8.8zm19.8 2.2v4.8h-9.3V7.6h9.3v2.1c0 .9 0 1.9.1 2.8-.1.4-.1.8-.1 1.2zm-.2-5.9h-8.9v8.9h3.4c.1 0 .3-.2.4-.4.1-.2 0-.4 0-.6 0-.7 0-.8-.7-.8-.4 0-.7-.2-.9-.6-.1-.3-.2-.6-.3-1h-1.2v-1.7h.5c.5.1.8 0 .8-.6 0-.3.4-.8.7-.8.8-.1.8-.6.8-1.1v-.3H48V10c1.4.3 1.6.5 1.6 1.6.4 0 .8 0 1.2.1v1.7h-.9c-.1 0-.3.1-.3.2-.2 1.1-.2 1.1-1.4 1.3-.2 0-.4.2-.4.3-.1.3-.1.7 0 1 0 .2.3.4.4.4h3.4V7.8zm-7.5 5.5c0-.5.1-.9.1-1.3h-.7v1.3h.6zm2.2-3.6c.5 0 .9-.1 1.4-.1V9h-1.4v.7zm4.3 3.6V12h-.7v1.3h.7zm-10.1 6.8c.4.5.5-.2.9-.1.6.3.6.3.8.1-.1-.2-.3-.3-.4-.5.1-.3.8-.5.1-.9-.2.2-.4.3-.5.5-.2-.2-.4-.3-.6-.5l-.3.3.5.5c-.2.3-.3.5-.5.6zm11.3-7.6c.2.1.4.3.5.4-.2.3-.4.5-.5.7.1.1.2.1.4.2.2-.2.4-.3.5-.4.3 0 .5.8.9.1l-.5-.5c.2-.2.3-.4.5-.5l-.3-.3c-.2.2-.4.3-.6.5-.2-.2-.3-.3-.6-.5-.1.1-.2.3-.3.3zM40.9 6.7c-.1 0-.2.2-.5.3.2.2.2.3.3.4.3-.2.5-.4.7-.5.2.2.4.3.6.5.7-.4-.2-.6-.1-.9.1-.1.3-.3.4-.5-.5-.5-.6.2-.9.2-.2-.2-.4-.3-.6-.5-.6.4.3.6.1 1zm5.6.7l.5-.5.5.5c.1-.1.2-.2.3-.2-.2-.2-.4-.4-.5-.6.2-.1.4-.3.5-.4-.3-.4-.3-.4-.8.1-.6-.4-.6-.4-.8-.1.1.2.3.3.4.5-.2.2-.3.3-.5.6.2-.1.3 0 .4.1zm.2 12.2c-.2.2-.3.4-.5.5v.2c.1 0 .3 0 .4-.1.2 0 .3-.1.5-.1s.3.1.5.1c-.1-.2-.2-.3-.2-.5 0 0-.1-.1-.1-.2.2-.2.3-.4.5-.5-.4-.6-.6.1-.8.1-.3 0-.5-.7-.9-.1l.6.6zm5.2.7c.1 0 .3-.1.4-.1.2 0 .3-.1.5-.1s.3.1.5.1c-.1-.2-.1-.3-.2-.5 0 0-.1-.1-.1-.2.2-.2.3-.4.5-.6l-.3-.3c-.2.2-.4.3-.5.5-.6-.5-.6-.5-.8-.1l.5.5c-.2.2-.3.3-.4.5-.1.2-.1.2-.1.3zm1.3-14.6c-.1.1-.1.2-.2.3-.1.1-.2.2-.3.2-.6-.5-.6-.5-.8-.2.1.1.3.3.4.5-.2.2-.3.4-.5.6l.3.3c.2-.2.4-.3.6-.5l.5.5.3-.3c-.2-.2-.3-.3-.4-.5 0-.3.8-.5.1-.9zm-12.3 8.2l.5-.5c.2.2.4.3.6.5.6-.4-.1-.6-.1-.9.1-.1.3-.3.4-.5-.1-.1-.2-.2-.3-.2-.2.2-.4.3-.5.5-.2-.2-.4-.3-.6-.5l-.3.3c.2.2.3.4.5.5-.6.5-.6.5-.2.8zm-15.6 33c0-1-.5-1.6-1.4-1.6-.8 0-1.4.7-1.4 1.6 0 1 .5 1.5 1.4 1.5.9 0 1.4-.5 1.4-1.5zm28 .5c.5.1 1-.2.9-.6-.1-.5-.3-1.1-.5-1.6h-.2c-.3.6-.7 1.2-1 1.8.4.3.6.4.8.4zm20.4 0c.4.1 1-.2 1-.5-.1-.6-.3-1.1-.5-1.6H74c-.3.6-.6 1.2-1 1.8.3.2.5.3.7.3zm-39.2 0c.4.1 1.1-.2 1-.5-.1-.6-.3-1.1-.5-1.6h-.2c-.3.6-.7 1.2-1 1.8.2.2.4.3.7.3zm24.3-1.2c.1-.2.1-.6 0-.6-.3-.2-.7-.3-1.1-.5v1.5c.5.1.9.1 1.1-.4zm-13.4.1c.1-.2.1-.6 0-.7-.3-.2-.7-.3-1.1-.5v1.4c.4.2.9.1 1.1-.2zm-31.1 8.6c-.8 0-1.3.6-1.4 1.5 0 .2 0 .4.1.6.1.7.5 1 1.2 1 1 0 1.4-.5 1.4-1.6 0-.9-.4-1.5-1.3-1.5zm56.7 0c-.8 0-1.4.6-1.4 1.6s.5 1.6 1.4 1.6c.9 0 1.3-.5 1.3-1.6.1-1-.4-1.6-1.3-1.6zm-26.9.1c-.8-.3-1.6.1-1.8.9-.2.8 0 1.7.5 2 1.1.6 2.1-.1 2.1-1.4 0-.9-.2-1.2-.8-1.5zm-24.9 3.3c.5-.2.9-.2 1.2-.5.1-.1.1-.6 0-.7-.3-.2-.7-.3-1.2-.6v1.8zm1.3-2.9c0-.4-.4-.7-.9-.6-.8.1-.3.8-.5 1.2 1 .1 1.4-.1 1.4-.6zm36.3-.5c-.3.6-.6 1.2-1 1.8.2.1.3.1.3.2.4.4.9.2 1.2-.1.2-.2.1-.6 0-.9-.1-.3-.3-.6-.4-.9 0-.1-.1-.1-.1-.1zm-24.3.9c.1-.2 0-.5-.1-.7-.2-.4-.6-.3-1-.2v1.3c.4 0 .9.1 1.1-.4z"/></svg>