<svg id="Capa_1" x="0" y="0" version="1.1" viewBox="0 0 152 62" xml:space="preserve"><path d="M150.3 46.2c-.4-.5-1.3-.9-2.6-1.4-.9-.3-1.6-.6-1.9-.8-.3-.2-.6-.4-.7-.6-.1-.2-.2-.4-.2-.7 0-.4.2-.8.6-1 .4-.2 1-.4 1.8-.4.9 0 1.9.2 2.9.7l.6-1.3c-1.1-.5-2.2-.7-3.4-.7-1.2 0-2.2.3-2.9.8-.7.5-1.1 1.2-1.1 2.1 0 .5.1.9.3 1.3.2.4.5.7.9.9.4.3 1.1.6 2.1 1 1.1.4 1.8.8 2.1 1.1.4.3.5.7.5 1.1 0 .6-.2 1-.7 1.2-.5.3-1.1.4-2 .4-.6 0-1.1-.1-1.7-.2-.6-.2-1.1-.4-1.7-.6v1.5c.8.5 1.9.7 3.3.7s2.4-.3 3.1-.8c.7-.5 1.1-1.3 1.1-2.3.3-.9.1-1.5-.4-2m-18.1-6v7c0 1.4.3 2.4 1 3 .7.6 1.6.9 2.9.9.8 0 1.4-.1 2-.4.6-.3 1.1-.7 1.4-1.2h.1l.2 1.4h1.3V40.2h-1.6v5.7c0 1.4-.3 2.4-.8 3-.5.6-1.3.9-2.5.9-.9 0-1.5-.2-1.9-.6-.4-.4-.6-1.1-.6-2v-7h-1.5zm-4.5 1.9c.5.5.7 1.3.7 2.4h-5.6c.1-1 .4-1.8.9-2.3.5-.6 1.2-.8 2.1-.8.8-.1 1.4.2 1.9.7m.3 8.9c.5-.1 1.1-.3 1.6-.5V49c-1.1.5-2.3.7-3.4.7s-2-.3-2.6-1c-.6-.7-.9-1.6-1-2.9h7.4v-1c0-1.5-.4-2.6-1.2-3.5-.8-.9-1.9-1.3-3.2-1.3-1.4 0-2.6.5-3.4 1.5-.9 1-1.3 2.4-1.3 4.1 0 1.7.5 3.1 1.4 4 .9 1 2.2 1.5 3.8 1.5.8 0 1.4 0 1.9-.1m-11.9-.3c.4.3.9.5 1.5.5s1.1-.2 1.5-.5c.4-.3.5-.8.5-1.4 0-.6-.2-1.1-.5-1.4-.3-.3-.8-.5-1.5-.5s-1.2.2-1.6.5c-.4.3-.5.8-.5 1.4 0 .6.2 1.1.6 1.4m-4.1-12c1.4 0 2.1-.6 2.1-1.7 0-.6-.2-1-.5-1.3-.3-.3-.8-.4-1.6-.4-.7 0-1.2.1-1.6.4-.3.3-.5.7-.5 1.3.1 1.1.7 1.7 2.1 1.7m1.9 1.1h-3.8v11.1h3.8V39.8zm-12.4 7.6c-.3-.5-.4-1.1-.4-2 0-.9.1-1.6.4-2 .3-.5.7-.7 1.2-.7.6 0 1 .2 1.3.6.3.4.4 1.1.4 2.1v.3c0 .8-.2 1.4-.4 1.8-.3.4-.7.6-1.3.6-.5 0-.9-.2-1.2-.7m2.6 2.1h.1l.8 1.4h2.9V35.6H104v3c0 .9.1 1.7.2 2.6h-.1c-.4-.6-.8-1-1.3-1.3-.5-.2-1-.4-1.6-.4-1.3 0-2.3.5-3 1.5-.7 1-1.1 2.4-1.1 4.2 0 1.2.2 2.2.5 3.1.3.9.8 1.5 1.4 2 .6.5 1.3.7 2.1.7 1.4.1 2.4-.4 3-1.5m-15-2.1c0-.9.6-1.4 1.9-1.4h.9v.9c0 .5-.2.9-.5 1.2-.3.3-.7.4-1.2.4-.8-.1-1.1-.4-1.1-1.1m6.6 3.5v-7.3c0-1.3-.4-2.3-1.2-3-.8-.7-1.9-1.1-3.3-1.1-2 0-3.6.3-4.9 1l1.1 2.5c1.3-.6 2.3-.8 3.1-.8.9 0 1.4.5 1.4 1.4v.2l-1.9.1c-1.6.1-2.8.4-3.6 1-.8.6-1.2 1.5-1.2 2.6s.3 2 .9 2.7c.6.6 1.4.9 2.5.9.9 0 1.5-.1 2.1-.4.5-.2 1.1-.7 1.6-1.3h.1l.7 1.5h2.6zm-19-6.2c.1-1 .2-2 .2-3v-6H73V51h3.9v-3l1.2-1 2.4 4H85l-4.1-6.4 3.9-4.7h-4.3l-2.5 3c-.3.4-.7 1-1.3 1.8zM71.3 46c-.2-.4-.5-.8-.8-1.1-.4-.3-1-.6-1.7-.9-1-.4-1.7-.7-1.9-.8-.2-.1-.3-.3-.3-.5 0-.3.3-.5.9-.5.4 0 .8.1 1.4.2.6.2 1.1.4 1.6.6l1-2.5c-.7-.3-1.4-.5-2-.7-.6-.2-1.3-.2-2.1-.2-1.5 0-2.6.3-3.4.9-.8.6-1.2 1.4-1.2 2.4 0 .8.2 1.5.6 2 .4.5 1.1 1 2.1 1.4 1.1.4 1.8.7 2 .9.2.2.3.3.3.5 0 .4-.4.6-1.2.6-.6 0-1.2-.1-1.9-.3-.7-.2-1.4-.4-2-.6v3.1c.6.2 1.3.4 1.9.5.6.1 1.3.1 2.2.1 1.5 0 2.7-.3 3.5-.9.8-.6 1.2-1.5 1.2-2.7.1-.6 0-1.1-.2-1.5m-10.4 4.9V39.8h-3.8v4.9c0 1.2-.1 2.1-.4 2.6-.3.5-.8.8-1.4.8-.5 0-.8-.2-1-.6-.2-.4-.3-.9-.3-1.7v-6.1h-4V47c0 1.3.3 2.3 1 3 .7.7 1.6 1.1 2.9 1.1.8 0 1.4-.1 2-.4.6-.3 1-.7 1.3-1.2h.2l.5 1.4h3zm-16.3-8.2c.2.3.4.7.4 1.3h-3.3c.1-.6.2-1.1.5-1.3.3-.3.7-.4 1.1-.4.6-.1 1 .1 1.3.4m1.3 8.2c.6-.1 1.3-.3 1.9-.6v-2.8c-.7.3-1.3.5-1.8.7-.6.1-1.2.2-1.9.2s-1.3-.2-1.8-.5c-.4-.4-.7-.8-.7-1.5h6.9v-1.7c0-1.6-.5-2.9-1.4-3.8-.9-.9-2.2-1.3-3.9-1.3-1.8 0-3.1.5-4.1 1.5-1 1-1.4 2.4-1.4 4.3 0 1.8.5 3.2 1.5 4.2s2.5 1.5 4.3 1.5c1 0 1.8 0 2.4-.2M22.4 50.9h9.2c0-8.5-6.9-15.3-15.3-15.3S1 42.5 1 50.9h9.2c0-3.4 2.7-6.1 6.1-6.1 3.4 0 6.1 2.7 6.1 6.1" class="st0"/></svg>