<?xml version="1.0" standalone="no"?>
<!DOCTYPE svg PUBLIC "-//W3C//DTD SVG 20010904//EN"
 "http://www.w3.org/TR/2001/REC-SVG-20010904/DTD/svg10.dtd">
<svg version="1.0" xmlns="http://www.w3.org/2000/svg"
 width="700.000000pt" height="700.000000pt" viewBox="0 0 700.000000 700.000000"
 preserveAspectRatio="xMidYMid meet">
<metadata>
Created by potrace 1.11, written by Peter Selinger 2001-2013
</metadata>
<g transform="translate(0.000000,700.000000) scale(0.100000,-0.100000)"
fill="#000000" stroke="none">
<path d="M4129 6216 c-2 -2 -65 -6 -139 -10 -74 -3 -145 -8 -157 -10 -11 -3
-43 -7 -70 -11 -200 -27 -436 -97 -618 -184 -227 -109 -417 -253 -579 -441
-53 -61 -156 -220 -202 -312 -42 -84 -104 -238 -104 -259 0 -5 11 -9 25 -9 21
0 30 12 65 87 128 274 341 410 618 396 258 -13 454 -163 560 -428 37 -92 80
-262 74 -287 -1 -5 9 -8 23 -8 16 0 25 6 25 15 0 22 0 20 17 77 18 61 59 145
108 222 31 49 173 235 199 262 6 6 38 41 71 79 33 38 79 89 102 114 23 25 50
55 60 67 10 12 43 49 73 84 186 211 263 359 230 440 -26 63 -135 105 -286 109
-43 1 -81 4 -84 6 -4 3 -9 3 -11 1z"/>
<path d="M2890 4371 c0 -8 -262 -618 -321 -748 -10 -23 -19 -48 -19 -55 0 -10
77 -13 400 -12 l400 0 0 -575 -1 -576 -192 -125 c-235 -152 -494 -321 -565
-367 l-52 -35 22 -20 c19 -16 187 -170 238 -218 9 -8 90 -82 180 -165 91 -82
167 -152 170 -155 3 -3 70 -66 150 -140 80 -73 196 -181 259 -239 142 -132
133 -123 153 -139 15 -12 23 -9 62 17 24 17 47 31 49 31 3 0 54 31 114 68 59
38 115 71 123 75 8 4 94 56 190 116 96 60 208 129 247 153 40 24 73 47 73 51
0 5 -68 129 -151 275 l-151 267 -4 635 c-2 349 -6 914 -8 1255 -3 341 -5 623
-5 628 -1 11 -1361 9 -1361 -2z"/>
</g>
</svg>
